<mxfile host="app.diagrams.net" modified="2021-09-02T18:52:06.179Z" agent="5.0 (Windows NT 10.0; WOW64) AppleWebKit/537.36 (KHTML, like Gecko) Chrome/93.0.4577.63 Safari/537.36" etag="Ji-OW_j3aKtwIvOCgl-a" version="15.0.6" type="github">
  <diagram id="Fmpa-COd6J_b_fzYQaFG" name="Page-1">
    <mxGraphModel dx="1078" dy="583" grid="1" gridSize="10" guides="1" tooltips="1" connect="1" arrows="1" fold="1" page="1" pageScale="1" pageWidth="1169" pageHeight="827" math="0" shadow="0">
      <root>
        <mxCell id="0" />
        <mxCell id="1" parent="0" />
      </root>
    </mxGraphModel>
  </diagram>
</mxfile>
